<svg width="28" height="30" viewBox="0 0 28 30" fill="none" xmlns="http://www.w3.org/2000/svg">
<g id="Google svg">
<path id="Vector" d="M26.32 15.3125C26.32 14.3375 26.2383 13.4 26.0867 12.5H14V17.8188H20.9067C20.6092 19.5375 19.705 20.9938 18.3458 21.9688V25.4187H22.4933C24.92 23.025 26.32 19.5 26.32 15.3125Z" fill="#4285F4"/>
<path id="Vector_2" d="M14 28.75C17.465 28.75 20.37 27.5188 22.4933 25.4188L18.3458 21.9688C17.1967 22.7938 15.7267 23.2813 14 23.2813C10.6575 23.2813 7.82834 20.8625 6.81918 17.6125H2.53168V21.175C4.64334 25.6688 8.98334 28.75 14 28.75Z" fill="#34A853"/>
<path id="Vector_3" d="M6.81919 17.6125C6.56252 16.7875 6.41669 15.9062 6.41669 15C6.41669 14.0937 6.56252 13.2125 6.81919 12.3875V8.825H2.53169C1.63335 10.7411 1.1659 12.8558 1.16669 15C1.16669 17.2187 1.66252 19.3187 2.53169 21.175L6.81919 17.6125Z" fill="#FBBC05"/>
<path id="Vector_4" d="M14 6.71875C15.8842 6.71875 17.5758 7.4125 18.9058 8.775L22.5867 4.83125C20.3642 2.6125 17.4592 1.25 14 1.25C8.98334 1.25 4.64334 4.33125 2.53168 8.825L6.81918 12.3875C7.82834 9.1375 10.6575 6.71875 14 6.71875Z" fill="#EA4335"/>
</g>
</svg>
