<svg width="66" height="52" viewBox="0 0 66 52" fill="none" xmlns="http://www.w3.org/2000/svg">
<path id="questionmark.folder" d="M9.80598 52H56.9317C62.3507 52 65.5 48.9018 65.5 42.9286V14.2351C65.5 8.26194 62.3223 5.16371 56.194 5.16371H29.8082C27.7654 5.16371 26.5738 4.68921 25.0133 3.43317L23.3677 2.14922C21.3817 0.530327 19.9064 0 16.9557 0H8.92645C3.62091 0 0.5 3.0424 0.5 8.90392V42.9286C0.5 48.9018 3.67765 52 9.80598 52ZM10.1464 46.5293C7.50786 46.5293 6.06089 45.1895 6.06089 42.482V9.37842C6.06089 6.81052 7.47948 5.47075 10.033 5.47075H15.4804C17.4948 5.47075 18.658 5.91734 20.2468 7.20129L21.8924 8.51315C23.8501 10.1041 25.3821 10.6345 28.3328 10.6345H55.8819C58.4921 10.6345 59.9391 11.9742 59.9391 14.7096V42.482C59.9391 45.1895 58.4921 46.5293 55.8819 46.5293H10.1464ZM32.4751 33.5781C33.9221 33.5781 34.83 32.7687 34.8867 31.708C34.9151 31.5963 34.9151 31.4847 34.9151 31.401C35.0002 30.0612 35.9081 29.168 37.6388 28.0515C40.2206 26.4047 41.8946 24.8975 41.8946 21.9109C41.8946 17.6125 37.9509 15.1562 33.2979 15.1562C28.8151 15.1562 25.751 17.1938 24.9566 19.5942C24.7863 20.0408 24.7012 20.4874 24.7012 20.9619C24.7012 22.19 25.6659 22.9716 26.744 22.9716C27.7086 22.9716 28.3612 22.5529 28.8719 21.883L29.2691 21.3527C30.177 19.9291 31.4254 19.1755 32.9858 19.1755C35.1137 19.1755 36.5607 20.4316 36.5607 22.1621C36.5607 23.8089 35.4542 24.6184 33.2128 26.1256C31.3402 27.4096 30.0068 28.7493 30.0068 31.0939V31.3731C30.0068 32.8245 30.8863 33.5781 32.4751 33.5781ZM32.4184 41.5051C34.1207 41.5051 35.4825 40.3049 35.4825 38.6581C35.4825 37.0392 34.1207 35.839 32.4184 35.839C30.7444 35.839 29.3542 37.0392 29.3542 38.6581C29.3542 40.277 30.7444 41.5051 32.4184 41.5051Z" fill="#8E8E8E"/>
</svg>
